<svg xmlns="http://www.w3.org/2000/svg" aria-hidden="true" style="width:0;height:0;position:absolute;overflow:hidden"><defs><symbol id="icon-menu" viewBox="0 0 48 32"><path d="M0 32h48v-5.333H0V32zm0-13.333h48v-5.333H0v5.333zM0 0v5.333h48V0H0z"/></symbol><symbol id="icon-arrow-up" viewBox="0 0 32 32"><path d="M17.818 30.545V8.418l10.164 10.164L30.546 16 16.001 1.455 1.456 16l2.564 2.564L14.184 8.419v22.127h3.636z"/></symbol><symbol id="icon-close-btn" viewBox="0 0 32 32"><path d="M32 3.223 28.777 0 16 12.777 3.223 0 0 3.223 12.777 16 0 28.777 3.223 32 16 19.223 28.777 32 32 28.777 19.223 16 32 3.223z"/></symbol><symbol id="icon-quotes" viewBox="0 0 33 32"><path d="M8.136 31.513c-1.391 0-2.689-.533-3.896-1.6-1.159-1.113-2.087-2.55-2.783-4.313-.617-1.644-.974-3.544-.974-5.528v-.113.006c0-3.061.534-5.937 1.6-8.626 1.113-2.737 2.458-5.032 4.035-6.887C7.696 2.55 9.203 1.206 10.64.417h.07l2.435 2.226v.974c-1.159 1.067-2.248 2.598-3.27 4.591-1.02 1.948-1.53 4.359-1.53 7.235 0 1.485.209 2.689.626 3.617s1.043 1.948 1.878 3.061c.696.881 1.206 1.646 1.53 2.296.326.65.487 1.437.487 2.365 0 1.391-.463 2.528-1.391 3.409-.881.881-1.994 1.322-3.339 1.322zm19.339 0c-1.391 0-2.666-.533-3.826-1.6-1.159-1.113-2.087-2.55-2.783-4.313-.617-1.644-.974-3.544-.974-5.528v-.113.006c0-3.061.534-5.937 1.6-8.626 1.113-2.737 2.458-5.055 4.035-6.957 1.578-1.902 3.085-3.224 4.522-3.965h.07l2.365 2.226v.974c-1.159 1.067-2.248 2.598-3.27 4.591-1.02 1.948-1.53 4.359-1.53 7.235 0 1.485.209 2.689.626 3.617s1.043 1.948 1.878 3.061c.696.881 1.206 1.646 1.53 2.296.326.65.487 1.437.487 2.365 0 1.391-.463 2.528-1.391 3.409-.881.881-1.994 1.322-3.339 1.322z"/></symbol></defs></svg>