<svg xmlns="http://www.w3.org/2000/svg" aria-hidden="true" style="width:0;height:0;position:absolute;overflow:hidden"><defs><symbol id="icon-menu" viewBox="0 0 48 32"><path d="M0 32h48v-5.333H0V32zm0-13.333h48v-5.333H0v5.333zM0 0v5.333h48V0H0z"/></symbol><symbol id="icon-arrow-up" viewBox="0 0 32 32"><path d="M17.818 30.545V8.418l10.164 10.164L30.546 16 16.001 1.455 1.456 16l2.564 2.564L14.184 8.419v22.127h3.636z"/></symbol><symbol id="icon-close-btn" viewBox="0 0 32 32"><path d="M32 3.223 28.777 0 16 12.777 3.223 0 0 3.223 12.777 16 0 28.777 3.223 32 16 19.223 28.777 32 32 28.777 19.223 16 32 3.223z"/></symbol><symbol id="icon-quotes" viewBox="0 0 33 32"><path d="M8.136 31.513c-1.391 0-2.689-.533-3.896-1.6-1.159-1.113-2.087-2.55-2.783-4.313-.617-1.644-.974-3.544-.974-5.528v-.113.006c0-3.061.534-5.937 1.6-8.626 1.113-2.737 2.458-5.032 4.035-6.887C7.696 2.55 9.203 1.206 10.64.417h.07l2.435 2.226v.974c-1.159 1.067-2.248 2.598-3.27 4.591-1.02 1.948-1.53 4.359-1.53 7.235 0 1.485.209 2.689.626 3.617s1.043 1.948 1.878 3.061c.696.881 1.206 1.646 1.53 2.296.326.65.487 1.437.487 2.365 0 1.391-.463 2.528-1.391 3.409-.881.881-1.994 1.322-3.339 1.322zm19.339 0c-1.391 0-2.666-.533-3.826-1.6-1.159-1.113-2.087-2.55-2.783-4.313-.617-1.644-.974-3.544-.974-5.528v-.113.006c0-3.061.534-5.937 1.6-8.626 1.113-2.737 2.458-5.055 4.035-6.957 1.578-1.902 3.085-3.224 4.522-3.965h.07l2.365 2.226v.974c-1.159 1.067-2.248 2.598-3.27 4.591-1.02 1.948-1.53 4.359-1.53 7.235 0 1.485.209 2.689.626 3.617s1.043 1.948 1.878 3.061c.696.881 1.206 1.646 1.53 2.296.326.65.487 1.437.487 2.365 0 1.391-.463 2.528-1.391 3.409-.881.881-1.994 1.322-3.339 1.322z"/></symbol><symbol id="icon-loader" viewBox="0 0 30 32"><path d="M13.909 6.939a3.47 3.47 0 1 0 0-6.94 3.47 3.47 0 1 0 0 6.94zM20.71 8.486a3.157 3.157 0 1 0-3.158-3.156 3.157 3.157 0 0 0 3.158 3.156zM25.615 13.237a2.841 2.841 0 1 0-2.842-2.84 2.84 2.84 0 0 0 2.842 2.84zM29.74 17.662a2.526 2.526 0 0 0-4.986-.808 2.526 2.526 0 0 0 4.986.808zM25.154 26.194a2.208 2.208 0 1 0 .002-4.416 2.208 2.208 0 0 0-.002 4.416zM19.918 30.606a1.894 1.894 0 1 0 .002-3.788 1.894 1.894 0 0 0-.002 3.788zM13.005 31.686a1.578 1.578 0 1 0 .002-3.156 1.578 1.578 0 0 0-.002 3.156zM6.344 29.052a1.263 1.263 0 1 0 0-2.526 1.263 1.263 0 0 0 0 2.526zM1.794 23.349a.947.947 0 1 0 0-1.894.947.947 0 0 0 0 1.894zM.632 16.083a.632.632 0 1 0 0-1.264.632.632 0 0 0 0 1.264zM3.178 9.193a.318.318 0 0 1-.295-.192.32.32 0 0 1 .412-.417.312.312 0 0 1 .197.292.317.317 0 0 1-.312.316z"/></symbol><symbol id="icon-phone" viewBox="0 0 32 32"><path d="M22.111 16.778c-.062.094-.062.188-.094.311a.759.759 0 0 0 .681.807h.003a.759.759 0 0 0 .808-.681v-.003c0-.093 0-.186.031-.342v-.342a8.216 8.216 0 0 0-.452-2.67l.017.058c-.373-1.088-1.026-2.052-1.804-2.861a7.865 7.865 0 0 0-3.427-2.008l-.055-.013a8.01 8.01 0 0 0-1.957-.248h-.003c-.217 0-.435 0-.684.031l-.653.094c-.404.062-.684.466-.59.839.062.405.466.684.839.591.188-.031.342-.062.53-.062h.093c.156 0 .311-.031.467-.031 1.71 0 3.296.684 4.416 1.834a6.245 6.245 0 0 1 1.835 4.35V16.778z"/><path d="M26.216 17.462a.759.759 0 0 0 .681.808h.003a.759.759 0 0 0 .808-.681v-.003c.031-.342.031-.684.031-1.026 0-.684-.062-1.337-.154-1.991-.405-2.488-1.618-4.727-3.328-6.438-1.96-1.959-4.572-3.234-7.464-3.452-.311-.031-.653-.031-.964-.031-.342 0-.684 0-1.026.031s-.684.062-1.026.124c-.405.063-.684.467-.591.84.063.405.467.684.84.591.218-.031.405-.062.622-.094.094 0 .188-.031.28-.031.31-.031.621-.031.902-.031 1.057 0 2.052.154 3.017.436a10.373 10.373 0 0 1 4.385 2.612 10.702 10.702 0 0 1 2.305 3.444l.026.071c.468 1.141.742 2.466.747 3.853v.313c-.057.195-.091.42-.094.652v.002z"/><path d="M27.273 5.146A16.098 16.098 0 0 0 15.827.388h-.032.002c-.466 0-.932.032-1.398.063-.522.036-1.002.102-1.47.199l.07-.012c-.404.062-.684.467-.59.839.062.405.467.684.839.591.218-.031.405-.062.622-.093.218-.031.436-.063.653-.063.436-.031.84-.062 1.276-.062 4.043 0 7.713 1.649 10.387 4.292a14.593 14.593 0 0 1 4.292 10.356v.031-.002.684c0 .188-.032.374-.032.591a.759.759 0 0 0 .681.808h.003a.759.759 0 0 0 .808-.681v-.003c.033-.398.055-.874.062-1.354v-.014c0-4.447-1.803-8.49-4.727-11.414zm3.576 18.846-5.504-2.954c-1.835-.995-1.898-.342-3.826 1.71-.466.498-1.336 1.804-2.364 1.556-2.145-.53-6.157-3.67-7.463-5.101-.622-.684-3.297-3.949-3.328-5.006-.062-1.618 3.482-2.425 2.333-5.505L8.24 3.189C5.939-2.099-.499 6.36.03 10.31c1.368 9.734 18.441 25.47 27.957 20.276 2.115-1.181 4.977-5.319 2.861-6.593z"/></symbol></defs></svg>