<svg xmlns="http://www.w3.org/2000/svg" aria-hidden="true" style="position:absolute;width:0;height:0;overflow:hidden">
  <defs>
    <symbol id="icon-menu" viewBox="0 0 48 32">
        <path d="M0 32h48v-5.333h-48v5.333zM0 18.667h48v-5.333h-48v5.333zM0 0v5.333h48v-5.333h-48z"></path>
    </symbol>
    <symbol id="icon-arrow-up" viewBox="0 0 32 32">
      <path d="M17.818 30.545v-22.127l10.164 10.164 2.564-2.582-14.545-14.545-14.545 14.545 2.564 2.564 10.164-10.145v22.127h3.636z"></path>
    </symbol>
    <symbol id="icon-close-btn" viewBox="0 0 32 32">
      <path d="M32 3.223l-3.223-3.223-12.777 12.777-12.777-12.777-3.223 3.223 12.777 12.777-12.777 12.777 3.223 3.223 12.777-12.777 12.777 12.777 3.223-3.223-12.777-12.777 12.777-12.777z"></path>
    </symbol>
    <symbol id="icon-quotes" viewBox="0 0 33 32">
      <path d="M8.136 31.513c-1.391 0-2.689-0.533-3.896-1.6-1.159-1.113-2.087-2.55-2.783-4.313-0.617-1.644-0.974-3.544-0.974-5.528 0-0.038 0-0.075 0-0.113l-0 0.006c0-3.061 0.534-5.937 1.6-8.626 1.113-2.737 2.458-5.032 4.035-6.887 1.578-1.902 3.085-3.246 4.522-4.035h0.070l2.435 2.226v0.974c-1.159 1.067-2.248 2.598-3.27 4.591-1.020 1.948-1.53 4.359-1.53 7.235 0 1.485 0.209 2.689 0.626 3.617s1.043 1.948 1.878 3.061c0.696 0.881 1.206 1.646 1.53 2.296 0.326 0.65 0.487 1.437 0.487 2.365 0 1.391-0.463 2.528-1.391 3.409-0.881 0.881-1.994 1.322-3.339 1.322zM27.475 31.513c-1.391 0-2.666-0.533-3.826-1.6-1.159-1.113-2.087-2.55-2.783-4.313-0.617-1.644-0.974-3.544-0.974-5.528 0-0.038 0-0.075 0-0.113l-0 0.006c0-3.061 0.534-5.937 1.6-8.626 1.113-2.737 2.458-5.055 4.035-6.957 1.578-1.902 3.085-3.224 4.522-3.965h0.070l2.365 2.226v0.974c-1.159 1.067-2.248 2.598-3.27 4.591-1.020 1.948-1.53 4.359-1.53 7.235 0 1.485 0.209 2.689 0.626 3.617s1.043 1.948 1.878 3.061c0.696 0.881 1.206 1.646 1.53 2.296 0.326 0.65 0.487 1.437 0.487 2.365 0 1.391-0.463 2.528-1.391 3.409-0.881 0.881-1.994 1.322-3.339 1.322z"></path>
    </symbol>
    <symbol id="icon-loader" viewBox="0 0 30 32">
      <path d="M13.909 6.939c1.918 0 3.472-1.553 3.472-3.47s-1.555-3.47-3.472-3.47c-1.918 0-3.472 1.553-3.472 3.47s1.555 3.47 3.472 3.47z"></path>
      <path d="M20.71 8.486c1.744 0 3.158-1.413 3.158-3.156s-1.414-3.156-3.158-3.156c-1.744 0-3.158 1.413-3.158 3.156s1.414 3.156 3.158 3.156z"></path>
      <path d="M25.615 13.237c1.569 0 2.842-1.271 2.842-2.84s-1.272-2.84-2.842-2.84c-1.569 0-2.842 1.271-2.842 2.84s1.272 2.84 2.842 2.84z"></path>
      <path d="M29.74 17.662c0.224-1.376-0.711-2.672-2.088-2.895s-2.674 0.711-2.898 2.087c-0.224 1.376 0.711 2.672 2.088 2.895s2.674-0.711 2.898-2.087z"></path>
      <path d="M25.154 26.194c1.22 0 2.209-0.988 2.209-2.208s-0.989-2.208-2.209-2.208-2.209 0.988-2.209 2.208c0 1.219 0.989 2.208 2.209 2.208z"></path>
      <path d="M19.918 30.606c1.047 0 1.895-0.848 1.895-1.894s-0.848-1.894-1.895-1.894c-1.047 0-1.895 0.848-1.895 1.894s0.849 1.894 1.895 1.894z"></path>
      <path d="M13.005 31.686c0.872 0 1.579-0.706 1.579-1.578s-0.707-1.578-1.579-1.578c-0.872 0-1.579 0.706-1.579 1.578s0.707 1.578 1.579 1.578z"></path>
      <path d="M6.344 29.052c0.697 0 1.263-0.565 1.263-1.262s-0.565-1.262-1.263-1.262c-0.697 0-1.263 0.565-1.263 1.262s0.565 1.262 1.263 1.262z"></path>
      <path d="M1.794 23.349c0.523 0 0.947-0.424 0.947-0.946s-0.424-0.946-0.947-0.946c-0.523 0-0.947 0.423-0.947 0.946s0.424 0.946 0.947 0.946z"></path>
      <path d="M0.632 16.083c0.349 0 0.632-0.283 0.632-0.632s-0.283-0.632-0.632-0.632c-0.349 0-0.632 0.283-0.632 0.632s0.283 0.632 0.632 0.632z"></path>
      <path d="M3.178 9.193c-0.063 0.001-0.124-0.017-0.177-0.051s-0.094-0.083-0.118-0.141c-0.025-0.058-0.031-0.121-0.019-0.183s0.042-0.118 0.086-0.163c0.044-0.045 0.1-0.075 0.162-0.088s0.125-0.006 0.183 0.017 0.108 0.064 0.143 0.116c0.035 0.052 0.054 0.113 0.054 0.176 0 0.083-0.033 0.163-0.091 0.222s-0.138 0.093-0.221 0.094z"></path>
    </symbol>
  </defs>
</svg>