<svg xmlns="http://www.w3.org/2000/svg" aria-hidden="true" style="position:absolute;width:0;height:0;overflow:hidden">
  <defs>
    <symbol id="icon-menu" viewBox="0 0 48 32">
        <path d="M0 32h48v-5.333h-48v5.333zM0 18.667h48v-5.333h-48v5.333zM0 0v5.333h48v-5.333h-48z"></path>
    </symbol>
    <symbol id="icon-arrow-up" viewBox="0 0 32 32">
      <path d="M17.818 30.545v-22.127l10.164 10.164 2.564-2.582-14.545-14.545-14.545 14.545 2.564 2.564 10.164-10.145v22.127h3.636z"></path>
    </symbol>
    <symbol id="icon-close-btn" viewBox="0 0 32 32">
      <path d="M32 3.223l-3.223-3.223-12.777 12.777-12.777-12.777-3.223 3.223 12.777 12.777-12.777 12.777 3.223 3.223 12.777-12.777 12.777 12.777 3.223-3.223-12.777-12.777 12.777-12.777z"></path>
    </symbol>
    <symbol id="icon-quotes" viewBox="0 0 33 32">
      <path d="M8.136 31.513c-1.391 0-2.689-0.533-3.896-1.6-1.159-1.113-2.087-2.55-2.783-4.313-0.617-1.644-0.974-3.544-0.974-5.528 0-0.038 0-0.075 0-0.113l-0 0.006c0-3.061 0.534-5.937 1.6-8.626 1.113-2.737 2.458-5.032 4.035-6.887 1.578-1.902 3.085-3.246 4.522-4.035h0.070l2.435 2.226v0.974c-1.159 1.067-2.248 2.598-3.27 4.591-1.020 1.948-1.53 4.359-1.53 7.235 0 1.485 0.209 2.689 0.626 3.617s1.043 1.948 1.878 3.061c0.696 0.881 1.206 1.646 1.53 2.296 0.326 0.65 0.487 1.437 0.487 2.365 0 1.391-0.463 2.528-1.391 3.409-0.881 0.881-1.994 1.322-3.339 1.322zM27.475 31.513c-1.391 0-2.666-0.533-3.826-1.6-1.159-1.113-2.087-2.55-2.783-4.313-0.617-1.644-0.974-3.544-0.974-5.528 0-0.038 0-0.075 0-0.113l-0 0.006c0-3.061 0.534-5.937 1.6-8.626 1.113-2.737 2.458-5.055 4.035-6.957 1.578-1.902 3.085-3.224 4.522-3.965h0.070l2.365 2.226v0.974c-1.159 1.067-2.248 2.598-3.27 4.591-1.020 1.948-1.53 4.359-1.53 7.235 0 1.485 0.209 2.689 0.626 3.617s1.043 1.948 1.878 3.061c0.696 0.881 1.206 1.646 1.53 2.296 0.326 0.65 0.487 1.437 0.487 2.365 0 1.391-0.463 2.528-1.391 3.409-0.881 0.881-1.994 1.322-3.339 1.322z"></path>
    </symbol>
  </defs>
</svg>