<svg xmlns="http://www.w3.org/2000/svg" width="24" height="23" fill="none">
  <path fill="#fff" d="M5.848 22.65c-1 0-1.933-.383-2.8-1.15-.833-.8-1.5-1.833-2-3.1a11.622 11.622 0 0 1-.7-4.05c0-2.2.384-4.267 1.15-6.2.8-1.967 1.767-3.617 2.9-4.95C5.532 1.833 6.615.867 7.648.3h.05l1.75 1.6v.7c-.833.767-1.616 1.867-2.35 3.3-.733 1.4-1.1 3.133-1.1 5.2 0 1.067.15 1.933.45 2.6.3.667.75 1.4 1.35 2.2.5.633.867 1.183 1.1 1.65.234.467.35 1.033.35 1.7 0 1-.333 1.817-1 2.45-.633.633-1.433.95-2.4.95Zm13.9 0c-1 0-1.916-.383-2.75-1.15-.833-.8-1.5-1.833-2-3.1a11.621 11.621 0 0 1-.7-4.05c0-2.2.384-4.267 1.15-6.2.8-1.967 1.767-3.633 2.9-5C19.482 1.783 20.565.833 21.598.3h.05l1.7 1.6v.7c-.833.767-1.616 1.867-2.35 3.3-.733 1.4-1.1 3.133-1.1 5.2 0 1.067.15 1.933.45 2.6.3.667.75 1.4 1.35 2.2.5.633.867 1.183 1.1 1.65.234.467.35 1.033.35 1.7 0 1-.333 1.817-1 2.45-.633.633-1.433.95-2.4.95Z"/>
</svg>
